<svg xmlns="http://www.w3.org/2000/svg" viewBox="0 0 1200 300" role="img" aria-label="Certified Nursing Assistant (CNA) Career Playbook">
  <defs>
    <linearGradient id="bg" x1="0" y1="0" x2="1" y2="1">
      <stop offset="0" stop-color="#0b1220"/>
      <stop offset="1" stop-color="#0f172a"/>
    </linearGradient>
  </defs>
  <rect width="1200" height="300" fill="url(#bg)"/>
  <rect x="0" y="0" width="1200" height="6" fill="#f59e0b"/>

  <!-- Brand mark -->
  <g transform="translate(72,104)">
    <rect width="96" height="96" rx="22" fill="#0b1322" stroke="#1e293b" stroke-width="2"/>
    <g transform="translate(8,8) scale(0.156)">
      <path d="M256 392c-8 0-16-3-22-9l-96-93c-34-33-34-87 0-120 30-29 78-29 108 1l10 10 10-10c30-30 78-30 108-1 34 33 34 87 0 120l-96 93c-6 6-14 9-22 9z" fill="#f59e0b"/>
      <path d="M150 252h54l20-44 28 92 22-58 14 10h74" fill="none" stroke="#0b1322" stroke-width="18" stroke-linecap="round" stroke-linejoin="round"/>
    </g>
  </g>

  <!-- Wordmark -->
  <text x="208" y="132" font-family="'Segoe UI', Roboto, Helvetica, Arial, sans-serif" font-size="44" font-weight="800" fill="#f8fafc">Certified Nursing Assistant (CNA)</text>
  <text x="208" y="186" font-family="'Segoe UI', Roboto, Helvetica, Arial, sans-serif" font-size="44" font-weight="800" fill="#f59e0b">Career Playbook</text>
  <text x="210" y="224" font-family="'Segoe UI', Roboto, Helvetica, Arial, sans-serif" font-size="18" fill="#94a3b8">A trauma-informed AI career companion for the 1.4M CNAs who hold U.S. care together.</text>

  <!-- Feature chips -->
  <g font-family="'Segoe UI', Roboto, Helvetica, Arial, sans-serif" font-size="13" font-weight="600" fill="#cbd5e1">
    <g transform="translate(210,244)">
      <rect width="170" height="28" rx="14" fill="#1e293b"/><text x="16" y="19">50-state certification</text>
    </g>
    <g transform="translate(392,244)">
      <rect width="150" height="28" rx="14" fill="#1e293b"/><text x="16" y="19">BLS-anchored wages</text>
    </g>
    <g transform="translate(554,244)">
      <rect width="148" height="28" rx="14" fill="#1e293b"/><text x="16" y="19">Burnout support · 988</text>
    </g>
    <g transform="translate(714,244)">
      <rect width="132" height="28" rx="14" fill="#1e293b"/><text x="16" y="19">Bilingual · PWA</text>
    </g>
  </g>
</svg>
